<svg width="54" height="55" viewBox="0 0 54 55" fill="none" xmlns="http://www.w3.org/2000/svg">
<ellipse cx="27" cy="27.0839" rx="27" ry="27.0839" fill="#E1DFE2"/>
<path d="M27.2703 25.171C27.1016 25.1541 26.8991 25.1541 26.7134 25.171C22.6972 25.0356 19.5078 21.7348 19.5078 17.6722C19.5078 13.525 22.8491 10.1564 27.0003 10.1564C31.1347 10.1564 34.4928 13.525 34.4928 17.6722C34.4759 21.7348 31.2866 25.0356 27.2703 25.171Z" stroke="#49454F" stroke-width="1.5" stroke-linecap="round" stroke-linejoin="round"/>
<path d="M18.8323 31.4172C14.7486 34.1595 14.7486 38.6283 18.8323 41.3536C23.473 44.4683 31.0836 44.4683 35.7242 41.3536C39.808 38.6114 39.808 34.1425 35.7242 31.4172C31.1005 28.3195 23.4898 28.3195 18.8323 31.4172Z" stroke="#49454F" stroke-width="1.5" stroke-linecap="round" stroke-linejoin="round"/>
</svg>
