<svg width="54" height="54" viewBox="0 0 54 54" fill="none" xmlns="http://www.w3.org/2000/svg">
<g clip-path="url(#clip0_1861_1007)">
<path fill-rule="evenodd" clip-rule="evenodd" d="M2.94615 33.7618C2.94615 29.1848 4.74336 24.7953 7.94242 21.5588C11.1415 18.3224 15.4803 16.5042 20.0045 16.5042H20.3314L20.9072 13.5433C20.6084 13.5279 20.3075 13.5214 20.0045 13.5214C16.9371 13.5226 13.9111 14.2373 11.1603 15.6105C8.40955 16.9836 6.00777 18.9783 4.14063 21.4404C2.27348 23.9025 0.990993 26.766 0.392304 29.8095C-0.206386 32.853 -0.105239 35.9951 0.687924 38.9928C1.48109 41.9904 2.94502 44.7635 4.96655 47.0974C6.98809 49.4314 9.51307 51.2637 12.3463 52.4529C15.1795 53.6421 18.2451 54.1562 21.3061 53.9554C24.3671 53.7547 27.3414 52.8445 29.9992 51.2953L28.5293 48.7132C25.9354 50.2257 22.9938 51.0211 19.9999 51.0196C17.006 51.018 14.0652 50.2195 11.4729 48.7042C8.88058 47.189 6.72797 45.0104 5.23128 42.3871C3.73458 39.7639 2.94649 36.7885 2.94615 33.7596V33.7618Z" fill="#008EDC"/>
<path fill-rule="evenodd" clip-rule="evenodd" d="M23.2478 16.8152C27.0965 17.5708 30.5708 19.6438 33.0867 22.6856C35.6026 25.7275 37.0068 29.5528 37.0633 33.5187H40.0074C39.9518 28.8617 38.3106 24.3666 35.3605 20.7912C32.4105 17.2158 28.332 14.779 23.8128 13.8915L23.2478 16.8152Z" fill="#008EDC"/>
<path fill-rule="evenodd" clip-rule="evenodd" d="M24.3818 10.9743C29.5713 11.9962 34.2532 14.7987 37.6367 18.9085C41.0203 23.0183 42.8982 28.1835 42.9533 33.5318H45.2848C45.2292 27.6375 43.1634 21.9434 39.4367 17.4123C35.7101 12.8811 30.5511 9.79079 24.8321 8.66382L24.3818 10.9743Z" fill="#008EDC"/>
<path fill-rule="evenodd" clip-rule="evenodd" d="M25.3997 5.71828C31.7899 6.97893 37.5533 10.4349 41.714 15.501C45.8747 20.5672 48.1771 26.9323 48.2314 33.5187H49.9502C49.8938 26.5308 47.4521 19.7773 43.0385 14.4018C38.6248 9.02625 32.5105 5.35901 25.7309 4.021L25.3997 5.71828Z" fill="#008EDC"/>
<path fill-rule="evenodd" clip-rule="evenodd" d="M26.2979 1.09722C33.7455 2.56874 40.4615 6.59926 45.3084 12.5061C50.1553 18.413 52.8351 25.8332 52.8941 33.5099H54.0003C53.9409 25.5738 51.1713 17.9025 46.1609 11.7958C41.1504 5.68907 34.2073 1.52256 26.5078 0.00219727L26.2979 1.09722Z" fill="#008EDC"/>
<path fill-rule="evenodd" clip-rule="evenodd" d="M31.5448 33.5493C31.5448 31.2402 30.868 28.9829 29.5999 27.0629C28.3318 25.143 26.5295 23.6465 24.4208 22.7629C22.312 21.8792 19.9917 21.648 17.7531 22.0985C15.5144 22.549 13.4582 23.6609 11.8442 25.2937C10.2303 26.9265 9.13115 29.0068 8.68586 31.2716C8.24057 33.5363 8.46911 35.8838 9.34257 38.0172C10.216 40.1505 11.6952 41.9739 13.593 43.2568C15.4908 44.5397 17.722 45.2244 20.0045 45.2244C23.065 45.2239 26 43.9936 28.1641 41.8042C30.3282 39.6148 31.5442 36.6456 31.5448 33.5493ZM28.1007 33.5493C28.1011 35.1694 27.6266 36.7532 26.7373 38.1004C25.8479 39.4477 24.5836 40.4979 23.1042 41.1181C21.6249 41.7384 19.997 41.9009 18.4263 41.5851C16.8556 41.2693 15.4128 40.4894 14.2803 39.344C13.1479 38.1986 12.3765 36.7391 12.064 35.1502C11.7514 33.5613 11.9116 31.9143 12.5243 30.4175C13.1371 28.9207 14.1748 27.6414 15.5062 26.7413C16.8377 25.8411 18.4031 25.3607 20.0045 25.3607C22.1512 25.3613 24.2098 26.2241 25.728 27.7596C27.2461 29.2951 28.0995 31.3775 28.1007 33.5493Z" fill="#008EDC"/>
<path fill-rule="evenodd" clip-rule="evenodd" d="M20.0047 22.0647C22.4406 22.0631 24.8123 22.8543 26.7695 24.3212C28.7268 25.7881 30.1657 27.8531 30.8738 30.2109C31.5818 32.5688 31.5214 35.0946 30.7015 37.4151C29.8816 39.7356 28.3456 41.7277 26.3206 43.0972C24.2955 44.4666 21.8888 45.1408 19.4558 45.0201C17.0229 44.8994 14.6929 43.9902 12.81 42.4268C10.9272 40.8634 9.59127 38.7288 8.99974 36.3383C8.40821 33.9478 8.59241 31.4282 9.52512 29.1517C10.3847 27.0533 11.8398 25.2599 13.7067 23.9981C15.5735 22.7363 17.7682 22.0627 20.0134 22.0625L20.0047 22.0647Z" fill="#008EDC"/>
</g>
<defs>
<clipPath id="clip0_1861_1007">
<rect width="54" height="54" fill="white"/>
</clipPath>
</defs>
</svg>
